<?xml version="1.0" standalone="no"?><!DOCTYPE svg PUBLIC "-//W3C//DTD SVG 1.1//EN" "http://www.w3.org/Graphics/SVG/1.1/DTD/svg11.dtd"><svg t="1773306418923" class="icon" viewBox="0 0 1024 1024" version="1.1" xmlns="http://www.w3.org/2000/svg" p-id="14331" width="512" height="512" xmlns:xlink="http://www.w3.org/1999/xlink"><path d="M890.74 185.69s89.94 97.22 20.68 210.9c0 0-42.37 31.6-68.29-38.8 0 0 52.32-84.45 47.61-172.1z" fill="#D2294B" p-id="14332"></path><path d="M883.05 193.38c0.75 0.81 1.47 1.66 2.18 2.51 0.84 1 1.66 2 2.49 3.06 1.57 1.93 0 0 0.11 0.13 0.67 0.91 1.36 1.8 2 2.71a209.47 209.47 0 0 1 17.44 28.34c14.34 28 21.85 60.49 18.7 92.68-2.37 24.34-11.43 47.47-24 68.3l3.9-3.9a41.3 41.3 0 0 1-6.16 3.45c-1.82 0.92 2.58-0.93 0.54-0.23-0.57 0.2-1.12 0.44-1.69 0.62-1.25 0.41-2.49 0.8-3.77 1.1-0.68 0.16-1.37 0.28-2.05 0.43-2.4 0.55 2.54-0.15 0 0-1.54 0.1-3.07 0.21-4.62 0.17-0.81 0-1.61-0.09-2.41-0.16 1.87 0.16 0.81 0.19-0.43-0.12a46.43 46.43 0 0 1-5.14-1.5c2 0.74-2.79-1.48-3.55-1.95a17.72 17.72 0 0 1-4-3c-9.13-8.32-14.74-19.76-19-31.17-0.36 2.79-0.73 5.59-1.09 8.38A297.83 297.83 0 0 0 870.18 329c12.19-27.1 21.91-55.43 27.19-84.72a259 259 0 0 0 4.24-58.56c-0.67-13.92-22.42-14-21.74 0 2.39 49-11.78 98-32.91 141.85-4.08 8.45-9 16.43-13.21 24.76-3.67 7.2 1.57 15.66 4.68 22.27a94.8 94.8 0 0 0 9.23 15.83c5.35 7.32 11.75 14.08 19.8 18.45a46.28 46.28 0 0 0 38.08 2.76 51.56 51.56 0 0 0 10.43-5c7.11-4.64 10.91-14.84 14.46-22.28A179.54 179.54 0 0 0 938 246.91c-8.64-24.62-21.73-49.56-39.56-68.9-9.52-10.31-24.86 5.09-15.39 15.37z" fill="#133131" p-id="14333"></path><path d="M896.76 432.51s-42.84 100.26-143 113-91.35-60.2-86.49-88.7 86.25-219.4 192.9-253.81c0 0-57.94 148.54-57.44 150.23 4.68 15.68 33.39 108.45 94.03 79.28z" fill="#D2294B" p-id="14334"></path><path d="M887.37 427a170.74 170.74 0 0 1-14.06 25.3 195.85 195.85 0 0 1-17 22.86 207.75 207.75 0 0 1-26.51 26 155.6 155.6 0 0 1-75.58 33.39c-14.25 2-29.56 2.67-43.36-0.59a49.45 49.45 0 0 1-19.42-8.67c1.6 1.19-0.7-0.61-1.15-1-0.92-0.84-1.83-1.68-2.69-2.58s-1.44-1.57-2.14-2.37c-1.24-1.43 0.71 1.16-0.76-1a59.1 59.1 0 0 1-3.44-5.65c-0.47-0.9-0.91-1.83-1.33-2.75-0.52-1.13 0.19 0.49 0.23 0.59-0.21-0.53-0.44-1.07-0.62-1.62-0.66-1.91-1.31-3.82-1.83-5.78s-0.94-3.92-1.29-5.91c-0.1-0.55-0.51-3.33-0.32-1.95s-0.18-1.73-0.23-2.38a104.16 104.16 0 0 1-0.34-12.11c0.09-3.64 0.35-7.28 0.73-10.91 0.12-1.11 0.79-6.19 0.3-2.76 0.23-1.6 0.47-3.2 0.73-4.8a87.93 87.93 0 0 1 3.47-13.73c2.4-7.33 5.2-14.54 8.14-21.68 0.43-1 0.86-2.08 1.3-3.12s-0.06 0.13-0.13 0.3l0.79-1.86c1-2.43 2.1-4.85 3.18-7.26q3.26-7.31 6.7-14.52A661.72 661.72 0 0 1 738 332.68c27.71-43.95 62.65-90 110.28-113.24a105.49 105.49 0 0 1 14.81-6l-13.38-13.37q-22.11 56.7-43.91 113.53c-3.41 8.94-6.82 17.87-10.13 26.85-2 5.38-4.6 10.53-3.17 16.36a177.46 177.46 0 0 0 26.24 57.4c8.64 12.36 19.4 23.86 33.44 30 16.67 7.3 33.92 5.25 50.1-2.33 5.31-2.49 6.67-10.13 3.9-14.87-3.19-5.45-9.54-6.4-14.88-3.9a48.24 48.24 0 0 1-8.86 3.11 24.71 24.71 0 0 1-7.77 1 22.15 22.15 0 0 1-7-0.64c-1.21-0.31-2.42-0.61-3.62-1-0.68-0.22-1.36-0.45-2-0.7-1-0.39 0.85 0.45-0.85-0.35-10-4.69-17.71-12.78-23.69-21.33a143.64 143.64 0 0 1-9.41-15.61q-1.92-3.64-3.66-7.37c-0.53-1.12-1-2.25-1.55-3.38L822 375a7.39 7.39 0 0 1-0.48-1.12c-3-7.22-4.75-15.13-7.92-22.23-1.11-2.47-0.28 3.88-0.3 3.89a7.86 7.86 0 0 0 0.68-2.07c0.84-2.53 1.79-5 2.72-7.54 3.21-8.7 6.52-17.38 9.82-26.05q13.25-34.69 26.72-69.3 8.67-22.36 17.39-44.72c3-7.7-6-15.8-13.37-13.37-54.52 17.92-95.07 65.63-126.44 111.51-27.76 40.61-51.64 85.23-68.51 131.51-10.2 28-14.36 64.7 1.9 91.19 13.5 22 38.58 30.21 63.23 31.06a174.11 174.11 0 0 0 95.47-25.33C858 511.06 887.78 477.3 905.22 440c0.31-0.68 0.63-1.36 0.93-2.05 2.31-5.39 1.6-11.65-3.9-14.87-4.58-2.64-12.55-1.49-14.88 3.92z" fill="#133131" p-id="14335"></path><path d="M133.33 185.69s-89.94 97.22-20.67 210.9c0 0 42.37 31.6 68.28-38.8 0 0-52.32-84.45-47.61-172.1z" fill="#D2294B" p-id="14336"></path><path d="M125.65 178c-14.41 15.63-25.61 35.12-33.91 54.55-17.86 41.8-21.67 88.47-6.4 131.76 2.29 6.48 5 12.86 7.87 19.08 3.12 6.65 6.52 15.63 11.76 20.88a26.61 26.61 0 0 0 6.57 4.3c10.57 5.38 22.59 7.47 34.24 4.6 19-4.69 32-21.77 39.87-38.61 3.12-6.66 8.38-15 4.68-22.27-0.32-0.63-0.75-1.22-1.1-1.84-2.34-4.15-4.69-8.28-6.89-12.5-24.21-46.46-40.7-99.48-38.13-152.27 0.68-14-21.07-13.95-21.75 0-2.79 57.43 15.69 115.46 42.43 165.74 2.12 4 4.29 8 6.67 11.85-0.37-2.79-0.73-5.59-1.1-8.38-4.3 11.44-9.92 22.79-19 31.17a16.36 16.36 0 0 1-4 3c-0.94 0.58-5.46 2.67-3.56 1.95a45.64 45.64 0 0 1-5.13 1.5c-0.57 0.14-3.28 0.36-0.43 0.12-0.81 0.07-1.61 0.13-2.42 0.16-1.55 0-3.07-0.07-4.61-0.17-2.2-0.16 2.27 0.53 0 0-0.68-0.16-1.38-0.27-2.05-0.43-1.28-0.3-2.52-0.7-3.77-1.1-0.57-0.18-1.13-0.42-1.7-0.62-1.84-0.63 2.31 1.15 0.54 0.23a45.21 45.21 0 0 1-6.15-3.45l3.9 3.9c-20.81-34.56-29.83-74.54-21.67-114.39 5.39-26.33 16.3-50.16 31.85-72.17 1.37-1.93 2.79-3.83 4.21-5.72-2 2.65 0.85-1.06 1.62-2 1-1.17 1.94-2.33 3-3.45 9.4-10.31-5.93-25.73-15.44-15.42z" fill="#133131" p-id="14337"></path><path d="M127.32 432.51s42.83 100.26 143 113 91.35-60.2 86.5-88.7S270.56 237.41 163.91 203c0 0 57.94 148.54 57.44 150.23-4.69 15.68-33.35 108.45-94.03 79.28z" fill="#D2294B" p-id="14338"></path><path d="M117.93 438c13.62 31.75 38.25 61 65.3 81.93a177.32 177.32 0 0 0 87.12 36.43c27.15 3.39 58.78 2.15 79.87-17.67 24.13-22.69 24.07-63.94 14.78-93.6-5.55-17.8-13.24-35.06-21.15-51.91a660.68 660.68 0 0 0-38.62-70.86c-29.76-47.34-67.92-97.5-119.61-122.21a158.47 158.47 0 0 0-18.86-7.61c-7.39-2.43-16.37 5.67-13.37 13.37q20.63 52.9 41 105.91 5.52 14.4 10.95 28.85c1.69 4.51 2.79 10.75 5.35 14.84 0 0 0.11 0.45 0.12 0.45-1.71 0.29 0.84-6.82-0.33-4.47a30.24 30.24 0 0 0-1.24 4q-1.84 5.78-4 11.45c-0.88 2.35-1.81 4.68-2.76 7-0.14 0.32-0.82 1.89-0.08 0.18-0.27 0.63-0.54 1.26-0.82 1.88-0.58 1.28-1.15 2.57-1.74 3.84a169.11 169.11 0 0 1-8.32 15.76c-6.61 11-14.44 21-24.87 27.05a32.74 32.74 0 0 1-14.46 4.61c-7 0.37-12.53-0.85-19.45-4.09-5.31-2.49-11.72-1.49-14.87 3.9-2.76 4.71-1.44 12.37 3.9 14.87 14 6.54 29.52 9.55 44.5 4.55 12.79-4.26 23.64-12.84 32.15-23.16 15-18.21 24.85-40.27 32-62.63a21.69 21.69 0 0 0-0.27-15.47c-2.87-8-5.92-16-8.94-23.93q-13.75-36.17-27.8-72.21-9.49-24.48-19-48.95-6.67 6.69-13.37 13.37c22.53 7.4 43.32 22.26 61 38.92 20.06 18.86 37.36 40.48 52.84 63.19a629.73 629.73 0 0 1 40.49 68.71q7.85 15.38 14.89 31.15c1 2.24 2 4.5 3 6.76 0.24 0.54 1.19 2.78 0.48 1.1 0.5 1.19 1 2.39 1.49 3.58q2.42 5.88 4.66 11.84a172.5 172.5 0 0 1 5.68 17.17c0.54 2.12 0.93 4.24 1.27 6.4 0.24 1.48 0.45 3 0.67 4.46 0 0.1-0.23-2.08 0 0.21 0.11 1 0.23 1.93 0.34 2.89a119.65 119.65 0 0 1 0.39 23c-0.09 1-0.19 2-0.31 3 0.26-2.26 0 0-0.17 0.94-0.38 2.13-0.81 4.24-1.37 6.33s-1.16 3.87-1.82 5.78c-0.3 0.86-1 2.38-0.21 0.63-0.48 1.07-1 2.12-1.51 3.15a79.4 79.4 0 0 1-3.18 5.28c-0.33 0.5-0.69 1-1 1.45 0.08-0.11 1.1-1.38 0.31-0.43s-1.59 1.84-2.43 2.72-1.53 1.54-2.34 2.26c-0.47 0.43-2.48 2.08-1.84 1.59s-1.55 1.07-2.11 1.43c-1.14 0.74-2.32 1.44-3.52 2.09-8.6 4.69-21.1 6.83-32.42 7a153.7 153.7 0 0 1-85.17-24.32c-32.46-20.7-54.25-49.53-71.58-82.93-0.3-0.58-0.55-1.19-0.81-1.79-2.31-5.4-10.25-6.6-14.87-3.9-5.64 3.25-6.29 9.45-3.96 14.87zM503.91 433.39c0.7-34.45-2.37-69.22-7-103.31-8-58.66-22.18-121.91-57.79-170.51-19.68-26.86-46.26-48.09-79.25-55.55-13.62-3.08-19.44 17.87-5.78 21 3.34 0.76 6.64 1.63 9.9 2.68 1.51 0.48 3 1 4.51 1.55 0.83 0.31 1.65 0.63 2.46 0.95l1.47 0.59c-0.83-0.35-0.89-0.37-0.19-0.06a112.42 112.42 0 0 1 17.66 9.82 96.46 96.46 0 0 1 14 11.37 156.66 156.66 0 0 1 13.59 14.86c1.58 1.94 2.66 3.41 4.81 6.45s4.14 6.06 6.08 9.17c3.87 6.2 7.41 12.6 10.68 19.13a282.9 282.9 0 0 1 16.15 39.92c9.29 28.26 15.43 57.51 19.73 86.91 0.94 6.46 1.5 10.71 2.37 18.29q1.1 9.4 1.93 18.85 1.47 16.44 2.25 32.93c0.55 11.64 1 23.34 0.73 35-0.28 14 21.46 14 21.74 0zM541.91 433.39c-0.66-32.4 2.05-65.13 6.18-97.23 0.3-2.29 0.54-4 1.1-7.84q0.79-5.49 1.7-11 1.74-10.69 3.87-21.33c3-15 6.59-29.83 11-44.46 8.4-28.05 18.69-53.54 35.77-77.91A133.84 133.84 0 0 1 615 157.1q4-4.2 8.27-8.06c1.3-1.16 2.61-2.29 4-3.39 0.67-0.55 1.34-1.1 2-1.63s0.54-0.43-0.15 0.11l1.24-0.93c13.11-9.55 24.26-14.74 39.61-18.22 13.64-3.08 7.87-24-5.78-21-61.27 13.86-95.78 71.78-114.75 127.15-18.12 52.95-25.71 109.68-28.44 165.38-0.6 12.27-1.06 24.59-0.82 36.88 0.29 14 22 14 21.75 0z" fill="#133131" p-id="14339"></path><path d="M400 466.4s21.81-145.62 111.1-145.62 113 145.62 113 145.62z" fill="#D2294B" p-id="14340"></path><path d="M410.45 469.29c2.41-16 6.81-31.87 12-47.16 9.19-27.15 22.63-55.39 45.32-74.45 9.89-8.32 24.22-14.79 37.18-15.8a65.08 65.08 0 0 1 22.31 1.72 60.4 60.4 0 0 1 19.67 8.52c11.51 7.2 22.2 18.91 29.89 30.34a215.49 215.49 0 0 1 20.58 39.8c7.16 18.29 13.07 37.6 16.25 57l10.48-13.76H400c-14 0-14 21.74 0 21.74h224.11c7.66 0 11.61-6.91 10.48-13.76-2.84-17.35-8-34.58-14-51.06-11.26-30.74-27.32-62.07-53.6-82.61-28.74-22.45-68.25-26.6-100.14-7.95-29.5 17.25-47.52 48.73-59.89 79.54-8 19.81-14.29 40.92-17.49 62.08-0.87 5.8 1.46 11.69 7.6 13.38 5.14 1.44 12.5-1.73 13.38-7.57z" fill="#133131" p-id="14341"></path><path d="M431.95 296.01m-18.42 0a18.42 18.42 0 1 0 36.84 0 18.42 18.42 0 1 0-36.84 0Z" fill="#133131" p-id="14342"></path><path d="M592.13 296.01m-18.42 0a18.42 18.42 0 1 0 36.84 0 18.42 18.42 0 1 0-36.84 0Z" fill="#133131" p-id="14343"></path><path d="M412.65 551.76h195.58s21.4-36.32 18.35-57.17H397.26s-1.83 29.9 15.39 57.17z" fill="#D2294B" p-id="14344"></path><path d="M412.65 562.63H572.3c11.75 0 23.64 0.55 35.38 0 10-0.47 13.8-12.09 17.44-19.86 6.78-14.47 14.34-31.81 12.33-48.18-0.72-5.84-4.4-10.87-10.87-10.87H397.26c-6.12 0-10.54 5-10.87 10.87-1.21 21.49 5.74 44.53 16.88 62.66 7.31 11.9 26.12 1 18.77-11-9.29-15.13-14.91-33.78-13.91-51.69l-10.87 10.87h229.32l-10.88-10.84c2.13 17.24-8.17 36.88-16.86 51.69l9.39-5.39H412.65c-13.99 0-14.01 21.74 0 21.74z" fill="#133131" p-id="14345"></path><path d="M608.94 905.16c0 6.52-6.49 11.81-14.49 11.81H429.63c-8 0-14.5-5.29-14.5-11.81v-22.49c0-6.52 6.49-11.81 14.5-11.81h164.82c8 0 14.49 5.29 14.49 11.81z" fill="#F7ECBF" p-id="14346"></path><path d="M598.07 905.16c-0.15 2-20.76 0.94-21.54 0.94H433.61c-1.65 0-6.27 0.51-7.39-0.88-0.89-1.09-0.22-5.14-0.22-6.62v-13.27c0-3.65 1.64-3.47 5-3.6 3.79-0.15 7.61 0 11.4 0h148.06c1.7 0 6.67-0.53 7.61 1 1.26 2.07 0 8.78 0 11.16v11.25c0 14 21.74 14 21.74 0 0-7.41 0.32-14.89 0-22.28C619.2 868.78 607.4 860.4 594 860c-10.87-0.34-21.8 0-32.68 0h-115c-13.48 0-29.95-2.1-38.5 11-5.44 8.37-3.63 20.13-3.63 29.67 0 4.92 0.08 9.71 2.46 14.21 4.31 8.14 13.09 12.39 22 12.88s18.27 0.05 27.34 0.05h116.44c10.62 0 24.48 1.91 34.32-2.87 7.93-3.85 12.41-11.17 13.06-19.81 0.45-5.87-5.31-10.87-10.87-10.87-6.25 0.03-10.42 5.02-10.87 10.9z" fill="#133131" p-id="14347"></path><path d="M512 880c205 0 371.35-146.4 372.43-327.35H139.61C140.69 733.56 307 880 512 880z" fill="#DD6E80" p-id="14348"></path><path d="M319.86 803.32a393.45 393.45 0 0 0 64.64 30c5.52 2 11.9-2.25 13.37-7.59 1.66-6-2.05-11.38-7.59-13.38a361 361 0 0 1-59.44-27.84c-12.12-7-23.08 11.73-11 18.78zM185.82 653.82c18.39 46 49.32 85.5 87.42 116.91 4.53 3.74 10.94 4.43 15.38 0 3.84-3.84 4.55-11.62 0-15.37-35-28.85-64.87-64.9-81.83-107.32-2.18-5.44-7.26-9.27-13.37-7.59-5.18 1.42-9.79 7.89-7.6 13.37zM152.08 628.67h696.2c9.44 0 19 0.51 28.48 0h1.27c4.67 0 4.67-7.24 0-7.24H181.84c-9.44 0-19.05-0.51-28.48 0h-1.28c-4.66 0-4.67 7.24 0 7.24zM140 577.94h708.2c9.47 0 19.11 0.51 28.57 0h1.25c4.67 0 4.67-7.24 0-7.24H169.83c-9.47 0-19.11-0.52-28.57 0h-1.25c-4.67 0-4.68 7.24 0 7.24zM175 593.18h56.78c7 0 7-10.87 0-10.87H175c-7 0-7 10.87 0 10.87zM175 615.57h56.78c7 0 7-10.88 0-10.88H175c-7 0-7 10.88 0 10.88z" fill="#FFFFFF" p-id="14349"></path><path d="M198 587.75v22.38c0 7 10.88 7 10.88 0v-22.38c0-7-10.88-7-10.88 0zM252.34 593.18h56.77c7 0 7-10.87 0-10.87h-56.77c-7 0-7 10.87 0 10.87zM252.34 615.57h56.77c7 0 7-10.88 0-10.88h-56.77c-7 0-7 10.88 0 10.88z" fill="#FFFFFF" p-id="14350"></path><path d="M275.29 587.75v22.38c0 7 10.87 7 10.87 0v-22.38c0-7-10.87-7-10.87 0zM329.65 593.18h56.77c7 0 7-10.87 0-10.87h-56.77c-7 0-7 10.87 0 10.87zM329.65 615.57h56.77c7 0 7-10.88 0-10.88h-56.77c-7 0-7 10.88 0 10.88z" fill="#FFFFFF" p-id="14351"></path><path d="M352.6 587.75v22.38c0 7 10.87 7 10.87 0v-22.38c0-7-10.87-7-10.87 0zM407 593.18h56.77c7 0 7-10.87 0-10.87H407c-7 0-7 10.87 0 10.87zM407 615.57h56.77c7 0 7-10.88 0-10.88H407c-7 0-7 10.88 0 10.88z" fill="#FFFFFF" p-id="14352"></path><path d="M429.9 587.75v22.38c0 7 10.87 7 10.87 0v-22.38c0-7-10.87-7-10.87 0zM484.26 593.18H541c7 0 7-10.87 0-10.87h-56.74c-7 0-7 10.87 0 10.87zM484.26 615.57H541c7 0 7-10.88 0-10.88h-56.74c-7 0-7 10.88 0 10.88z" fill="#FFFFFF" p-id="14353"></path><path d="M507.21 587.75v22.38c0 7 10.87 7 10.87 0v-22.38c0-7-10.87-7-10.87 0zM561.56 593.18h56.77c7 0 7-10.87 0-10.87h-56.77c-7 0-7 10.87 0 10.87zM561.56 615.57h56.77c7 0 7-10.88 0-10.88h-56.77c-7 0-7 10.88 0 10.88z" fill="#FFFFFF" p-id="14354"></path><path d="M584.51 587.75v22.38c0 7 10.87 7 10.87 0v-22.38c0-7-10.87-7-10.87 0zM638.87 593.18h56.77c7 0 7-10.87 0-10.87h-56.77c-7 0-7 10.87 0 10.87zM638.87 615.57h56.77c7 0 7-10.88 0-10.88h-56.77c-7 0-7 10.88 0 10.88z" fill="#FFFFFF" p-id="14355"></path><path d="M661.82 587.75v22.38c0 7 10.87 7 10.87 0v-22.38c0-7-10.87-7-10.87 0zM716.17 593.18h56.77c7 0 7-10.87 0-10.87h-56.77c-7 0-7 10.87 0 10.87zM716.17 615.57h56.77c7 0 7-10.88 0-10.88h-56.77c-7 0-7 10.88 0 10.88z" fill="#FFFFFF" p-id="14356"></path><path d="M739.12 587.75v22.38c0 7 10.87 7 10.87 0v-22.38c0-7-10.87-7-10.87 0zM793.48 593.18h56.77c7 0 7-10.87 0-10.87h-56.77c-7 0-7 10.87 0 10.87zM793.48 615.57h56.77c7 0 7-10.88 0-10.88h-56.77c-7 0-7 10.88 0 10.88z" fill="#FFFFFF" p-id="14357"></path><path d="M816.43 587.75v22.38c0 7 10.87 7 10.87 0v-22.38c0-7-10.87-7-10.87 0z" fill="#FFFFFF" p-id="14358"></path><path d="M512 890.83c77.44-0.16 155-20.73 220.76-62 60.88-38.16 110.81-93.35 138.72-159.83a307.67 307.67 0 0 0 23.86-116.39 11 11 0 0 0-10.87-10.87h-653c-30.16 0-60.48-0.91-90.63 0h-1.24a11 11 0 0 0-10.88 10.87c0.63 71.86 26.91 140.46 71.76 196.27 46.06 57.32 110.35 98.73 180 121.39A428.5 428.5 0 0 0 512 890.83c14 0 14-21.71 0-21.74-73.52-0.15-146.57-19.58-209.1-58.6-56.59-35.34-103.7-86.8-129.9-148.57a286.78 286.78 0 0 1-22.54-109.31l-10.87 10.87h714.77c9.53 0 19.35 0.69 28.87 0h1.24l-10.87-10.87c-0.58 66.56-24.86 131.18-66.85 182.71C762.92 789.1 702.87 828.3 637 849.57a409 409 0 0 1-125 19.52c-13.95 0.03-14 21.77 0 21.74z" fill="#133131" p-id="14359"></path></svg>